<svg width="72" height="25" viewBox="0 0 72 25" fill="none" xmlns="http://www.w3.org/2000/svg">
<path d="M7.128 13.056C7.128 15.168 7.332 16.68 7.74 17.592C8.172 18.48 8.868 18.924 9.828 18.924C10.788 18.924 12.144 18.696 13.896 18.24L14.832 23.316C12.936 24.012 11.028 24.36 9.108 24.36C6.228 24.36 4.128 23.412 2.808 21.516C1.512 19.596 0.864 16.752 0.864 12.984C0.864 9.192 1.548 6.3 2.916 4.308C4.284 2.292 6.516 1.284 9.612 1.284C11.436 1.284 13.176 1.668 14.832 2.436L13.86 8.016C11.988 7.392 10.68 7.08 9.936 7.08C8.88 7.08 8.148 7.548 7.74 8.484C7.332 9.396 7.128 10.92 7.128 13.056ZM15.5576 15.324C15.5576 12.156 16.1576 9.864 17.3576 8.448C18.5816 7.032 20.4776 6.324 23.0456 6.324C25.6376 6.324 27.5216 7.02 28.6976 8.412C29.8736 9.804 30.4616 12.096 30.4616 15.288C30.4616 18.456 29.8856 20.76 28.7336 22.2C27.5816 23.64 25.6976 24.36 23.0816 24.36C20.4656 24.36 18.5576 23.64 17.3576 22.2C16.1576 20.76 15.5576 18.468 15.5576 15.324ZM24.1976 11.904C24.0536 11.424 23.6696 11.184 23.0456 11.184C22.4216 11.184 22.0256 11.424 21.8576 11.904C21.6896 12.384 21.6056 13.392 21.6056 14.928V15.792C21.6056 17.496 21.6896 18.6 21.8576 19.104C22.0256 19.608 22.4096 19.86 23.0096 19.86C23.6336 19.86 24.0296 19.608 24.1976 19.104C24.3656 18.6 24.4496 17.568 24.4496 16.008V14.964C24.4496 13.404 24.3656 12.384 24.1976 11.904ZM32.3339 20.04V0.923999H38.2739V18.132C38.2739 18.54 38.3579 18.828 38.5259 18.996C38.7179 19.164 39.0419 19.248 39.4979 19.248L39.0299 24.36H37.0499C35.4659 24.36 34.2779 24.036 33.4859 23.388C32.7179 22.716 32.3339 21.6 32.3339 20.04ZM49.9523 6.36C52.2083 6.36 53.7083 7.02 54.4523 8.34C55.1963 9.636 55.5683 11.88 55.5683 15.072C55.5683 18.24 55.1723 20.58 54.3803 22.092C53.5883 23.604 52.0403 24.36 49.7363 24.36C47.9363 24.36 46.6763 23.892 45.9563 22.956H45.8123L45.4523 24H40.7363V0.923999H46.7483V7.152H46.8923C47.6843 6.624 48.7043 6.36 49.9523 6.36ZM49.3043 18.6C49.4003 18.168 49.4603 17.748 49.4843 17.34C49.5083 16.932 49.5203 16.164 49.5203 15.036C49.5203 13.884 49.4363 13.008 49.2683 12.408C49.1003 11.784 48.7523 11.472 48.2243 11.472C47.7203 11.472 47.2163 11.616 46.7123 11.904V19.356C47.1683 19.572 47.6003 19.68 48.0083 19.68C48.4403 19.68 48.7402 19.608 48.9082 19.464C49.1003 19.296 49.2323 19.008 49.3043 18.6ZM64.7058 11.472C64.0818 11.472 63.6738 11.688 63.4818 12.12C63.2898 12.528 63.1938 13.164 63.1938 14.028H66.3258V13.164C66.3258 12.036 65.7858 11.472 64.7058 11.472ZM64.8498 6.324C67.3218 6.324 69.0858 6.924 70.1418 8.124C71.2218 9.3 71.7618 10.992 71.7618 13.2C71.7618 13.488 71.6778 14.784 71.5098 17.088H63.3018C63.3018 18.888 64.1298 19.788 65.7858 19.788C66.5778 19.788 68.1258 19.512 70.4298 18.96L70.9338 23.424C68.9178 24.048 66.9018 24.36 64.8858 24.36C62.4138 24.36 60.5178 23.556 59.1978 21.948C57.8778 20.316 57.2178 18.108 57.2178 15.324C57.2178 9.324 59.7618 6.324 64.8498 6.324Z" fill="black"/>
<path d="M7.74 17.592L7.28359 17.7962L7.28687 17.8035L7.29038 17.8107L7.74 17.592ZM13.896 18.24L14.3877 18.1493L14.2902 17.6207L13.7701 17.7561L13.896 18.24ZM14.832 23.316L15.0043 23.7854L15.4002 23.6401L15.3237 23.2253L14.832 23.316ZM2.808 21.516L2.39353 21.7958L2.39765 21.8017L2.808 21.516ZM2.916 4.308L3.32817 4.59106L3.32974 4.58875L2.916 4.308ZM14.832 2.436L15.3246 2.5218L15.3904 2.14382L15.0424 1.9824L14.832 2.436ZM13.86 8.016L13.7019 8.49034L14.2529 8.67401L14.3526 8.1018L13.86 8.016ZM7.74 8.484L8.19643 8.68819L8.19835 8.68379L7.74 8.484ZM6.628 13.056C6.628 15.1772 6.82944 16.781 7.28359 17.7962L8.19641 17.3878C7.83456 16.579 7.628 15.1588 7.628 13.056H6.628ZM7.29038 17.8107C7.53877 18.3213 7.87724 18.7319 8.31709 19.0125C8.7578 19.2937 9.26855 19.424 9.828 19.424V18.424C9.42745 18.424 9.1102 18.3323 8.85491 18.1695C8.59877 18.0061 8.37323 17.7507 8.18962 17.3733L7.29038 17.8107ZM9.828 19.424C10.8528 19.424 12.2583 19.1829 14.0219 18.7239L13.7701 17.7561C12.0297 18.2091 10.7232 18.424 9.828 18.424V19.424ZM13.4043 18.3307L14.3403 23.4067L15.3237 23.2253L14.3877 18.1493L13.4043 18.3307ZM14.6597 22.8466C12.816 23.5234 10.9662 23.86 9.108 23.86V24.86C11.0898 24.86 13.056 24.5006 15.0043 23.7854L14.6597 22.8466ZM9.108 23.86C6.3462 23.86 4.42162 22.9586 3.21835 21.2303L2.39765 21.8017C3.83438 23.8653 6.1098 24.86 9.108 24.86V23.86ZM3.22242 21.2363C2.00721 19.4359 1.364 16.7091 1.364 12.984H0.364C0.364 16.7949 1.01679 19.7561 2.39358 21.7957L3.22242 21.2363ZM1.364 12.984C1.364 9.23989 2.04148 6.46465 3.32817 4.59105L2.50383 4.02494C1.05452 6.13535 0.364 9.14411 0.364 12.984H1.364ZM3.32974 4.58875C4.57956 2.74691 6.63131 1.784 9.612 1.784V0.783998C6.40069 0.783998 3.98844 1.83709 2.50226 4.02725L3.32974 4.58875ZM9.612 1.784C11.3633 1.784 13.0315 2.15214 14.6216 2.88959L15.0424 1.9824C13.3205 1.18386 11.5087 0.783998 9.612 0.783998V1.784ZM14.3394 2.35019L13.3674 7.93019L14.3526 8.1018L15.3246 2.5218L14.3394 2.35019ZM14.0181 7.54166C12.1526 6.91983 10.772 6.58 9.936 6.58V7.58C10.588 7.58 11.8234 7.86417 13.7019 8.49034L14.0181 7.54166ZM9.936 6.58C9.33325 6.58 8.78791 6.71421 8.32567 7.00974C7.86228 7.306 7.51819 7.74155 7.28165 8.28421L8.19835 8.68379C8.36981 8.29044 8.59572 8.02399 8.86433 7.85226C9.13409 7.67979 9.48275 7.58 9.936 7.58V6.58ZM7.28359 8.27982C6.82926 9.29539 6.628 10.9118 6.628 13.056H7.628C7.628 10.9282 7.83474 9.49661 8.19641 8.68818L7.28359 8.27982ZM17.3576 8.448L16.9793 8.12101L16.9762 8.12474L17.3576 8.448ZM28.7336 22.2L29.1241 22.5123L29.1241 22.5123L28.7336 22.2ZM17.3576 22.2L16.9735 22.5201L16.9735 22.5201L17.3576 22.2ZM24.1976 11.904L23.7187 12.0477L23.722 12.0585L23.7257 12.0692L24.1976 11.904ZM21.8576 11.904L21.3857 11.7388L21.3857 11.7388L21.8576 11.904ZM21.8576 19.104L22.332 18.9459L22.332 18.9459L21.8576 19.104ZM24.1976 19.104L23.7233 18.9459L23.7233 18.9459L24.1976 19.104ZM16.0576 15.324C16.0576 12.1979 16.6537 10.052 17.7391 8.77126L16.9762 8.12474C15.6616 9.67597 15.0576 12.1141 15.0576 15.324H16.0576ZM17.7359 8.77498C18.8333 7.50543 20.5663 6.824 23.0456 6.824V5.824C20.389 5.824 18.33 6.55857 16.9794 8.12102L17.7359 8.77498ZM23.0456 6.824C25.5549 6.824 27.2696 7.49649 28.3157 8.73467L29.0796 8.08932C27.7736 6.54351 25.7204 5.824 23.0456 5.824V6.824ZM28.3157 8.73467C29.3761 9.98986 29.9616 12.1339 29.9616 15.288H30.9616C30.9616 12.0581 30.3712 9.61814 29.0796 8.08932L28.3157 8.73467ZM29.9616 15.288C29.9616 18.4162 29.3889 20.5805 28.3432 21.8877L29.1241 22.5123C30.3823 20.9395 30.9616 18.4958 30.9616 15.288H29.9616ZM28.3432 21.8877C27.3211 23.1653 25.6123 23.86 23.0816 23.86V24.86C25.7829 24.86 27.8422 24.1147 29.1241 22.5123L28.3432 21.8877ZM23.0816 23.86C20.5526 23.86 18.8134 23.1659 17.7417 21.8799L16.9735 22.5201C18.3019 24.1141 20.3787 24.86 23.0816 24.86V23.86ZM17.7417 21.8799C16.6528 20.5732 16.0576 18.4239 16.0576 15.324H15.0576C15.0576 18.5121 15.6625 20.9468 16.9735 22.5201L17.7417 21.8799ZM24.6765 11.7603C24.5736 11.4174 24.3728 11.1314 24.0666 10.94C23.7705 10.7549 23.4172 10.684 23.0456 10.684V11.684C23.298 11.684 23.4487 11.7331 23.5366 11.788C23.6144 11.8366 23.6776 11.9106 23.7187 12.0477L24.6765 11.7603ZM23.0456 10.684C22.673 10.684 22.3203 10.7553 22.0215 10.9364C21.7143 11.1226 21.504 11.4008 21.3857 11.7388L22.3296 12.0692C22.3792 11.9272 22.4509 11.8454 22.5398 11.7916C22.637 11.7327 22.7943 11.684 23.0456 11.684V10.684ZM21.3857 11.7388C21.2799 12.0411 21.2131 12.4652 21.1704 12.9785C21.1268 13.5014 21.1056 14.1524 21.1056 14.928H22.1056C22.1056 14.1676 22.1265 13.5466 22.1669 13.0615C22.2081 12.5668 22.2673 12.2469 22.3296 12.0692L21.3857 11.7388ZM21.1056 14.928V15.792H22.1056V14.928H21.1056ZM21.1056 15.792C21.1056 16.6507 21.1267 17.3665 21.1701 17.9359C21.2126 18.4947 21.2787 18.9484 21.3833 19.2621L22.332 18.9459C22.2685 18.7556 22.2087 18.4053 22.1672 17.8601C22.1265 17.3255 22.1056 16.6373 22.1056 15.792H21.1056ZM21.3833 19.2621C21.497 19.6033 21.697 19.8919 21.9973 20.089C22.2923 20.2826 22.6416 20.36 23.0096 20.36V19.36C22.7777 19.36 22.6349 19.3114 22.546 19.253C22.4623 19.1981 22.3862 19.1087 22.332 18.9459L21.3833 19.2621ZM23.0096 20.36C23.3861 20.36 23.7424 20.2841 24.0431 20.0928C24.3506 19.8971 24.5567 19.6079 24.672 19.2621L23.7233 18.9459C23.6705 19.1041 23.5946 19.1929 23.5062 19.2492C23.4108 19.3099 23.2571 19.36 23.0096 19.36V20.36ZM24.672 19.2621C24.7756 18.9513 24.8422 18.5184 24.885 17.9926C24.9285 17.4582 24.9496 16.7955 24.9496 16.008H23.9496C23.9496 16.7805 23.9288 17.4138 23.8883 17.9114C23.8471 18.4176 23.7877 18.7527 23.7233 18.9459L24.672 19.2621ZM24.9496 16.008V14.964H23.9496V16.008H24.9496ZM24.9496 14.964C24.9496 14.1766 24.9285 13.5167 24.8849 12.988C24.8422 12.4692 24.7755 12.0416 24.6696 11.7388L23.7257 12.0692C23.7877 12.2464 23.847 12.5688 23.8883 13.07C23.9288 13.5613 23.9496 14.1914 23.9496 14.964H24.9496ZM32.3339 0.923999V0.423999H31.8339V0.923999H32.3339ZM38.2739 0.923999H38.7739V0.423999H38.2739V0.923999ZM38.5259 18.996L38.1724 19.3496L38.1841 19.3613L38.1967 19.3723L38.5259 18.996ZM39.4979 19.248L39.9958 19.2936L40.0458 18.748H39.4979V19.248ZM39.0299 24.36V24.86H39.4862L39.5278 24.4056L39.0299 24.36ZM33.4859 23.388L33.1567 23.7643L33.1629 23.7697L33.1693 23.775L33.4859 23.388ZM32.8339 20.04V0.923999H31.8339V20.04H32.8339ZM32.3339 1.424H38.2739V0.423999H32.3339V1.424ZM37.7739 0.923999V18.132H38.7739V0.923999H37.7739ZM37.7739 18.132C37.7739 18.5839 37.8624 19.0396 38.1724 19.3496L38.8795 18.6424C38.8534 18.6164 38.7739 18.4961 38.7739 18.132H37.7739ZM38.1967 19.3723C38.5284 19.6626 39.0065 19.748 39.4979 19.748V18.748C39.0773 18.748 38.9074 18.6654 38.8552 18.6197L38.1967 19.3723ZM39 19.2024L38.532 24.3144L39.5278 24.4056L39.9958 19.2936L39 19.2024ZM39.0299 23.86H37.0499V24.86H39.0299V23.86ZM37.0499 23.86C35.5213 23.86 34.4678 23.5453 33.8025 23.001L33.1693 23.775C34.088 24.5267 35.4105 24.86 37.0499 24.86V23.86ZM33.8152 23.0117C33.2023 22.4754 32.8339 21.5322 32.8339 20.04H31.8339C31.8339 21.6678 32.2335 22.9566 33.1567 23.7643L33.8152 23.0117ZM54.4523 8.34L54.0167 8.58551L54.0186 8.58893L54.4523 8.34ZM54.3803 22.092L53.9373 21.86L53.9373 21.86L54.3803 22.092ZM45.9563 22.956L46.3526 22.6511L46.2025 22.456H45.9563V22.956ZM45.8123 22.956V22.456H45.4558L45.3396 22.793L45.8123 22.956ZM45.4523 24V24.5H45.8087L45.9249 24.163L45.4523 24ZM40.7363 24H40.2363V24.5H40.7363V24ZM40.7363 0.923999V0.423999H40.2363V0.923999H40.7363ZM46.7483 0.923999H47.2483V0.423999H46.7483V0.923999ZM46.7483 7.152H46.2483V7.652H46.7483V7.152ZM46.8923 7.152V7.652H47.0436L47.1696 7.56802L46.8923 7.152ZM49.3043 18.6L48.8162 18.4915L48.8138 18.5023L48.8119 18.5131L49.3043 18.6ZM49.4843 17.34L48.9851 17.3106L48.9851 17.3106L49.4843 17.34ZM49.2683 12.408L48.7854 12.538L48.7868 12.5428L49.2683 12.408ZM46.7123 11.904L46.4642 11.4699L46.2123 11.6138V11.904H46.7123ZM46.7123 19.356H46.2123V19.6724L46.4982 19.8079L46.7123 19.356ZM48.9082 19.464L49.2337 19.8436L49.2375 19.8403L48.9082 19.464ZM49.9523 6.86C52.1244 6.86 53.4003 7.49192 54.0167 8.58551L54.8878 8.09449C54.0162 6.54808 52.2921 5.86 49.9523 5.86V6.86ZM54.0186 8.58893C54.6921 9.76205 55.0683 11.889 55.0683 15.072H56.0683C56.0683 11.871 55.7004 9.50995 54.8859 8.09107L54.0186 8.58893ZM55.0683 15.072C55.0683 18.2172 54.6719 20.4576 53.9373 21.86L54.8232 22.324C55.6726 20.7024 56.0683 18.2628 56.0683 15.072H55.0683ZM53.9373 21.86C53.2617 23.1499 51.9294 23.86 49.7363 23.86V24.86C52.1511 24.86 53.9148 24.0581 54.8232 22.324L53.9373 21.86ZM49.7363 23.86C48.0081 23.86 46.9366 23.4104 46.3526 22.6511L45.5599 23.2609C46.4159 24.3736 47.8644 24.86 49.7363 24.86V23.86ZM45.9563 22.456H45.8123V23.456H45.9563V22.456ZM45.3396 22.793L44.9796 23.837L45.9249 24.163L46.2849 23.119L45.3396 22.793ZM45.4523 23.5H40.7363V24.5H45.4523V23.5ZM41.2363 24V0.923999H40.2363V24H41.2363ZM40.7363 1.424H46.7483V0.423999H40.7363V1.424ZM46.2483 0.923999V7.152H47.2483V0.923999H46.2483ZM46.7483 7.652H46.8923V6.652H46.7483V7.652ZM47.1696 7.56802C47.8575 7.10946 48.7727 6.86 49.9523 6.86V5.86C48.6358 5.86 47.511 6.13854 46.6149 6.73597L47.1696 7.56802ZM49.7923 18.7085C49.8937 18.2526 49.9577 17.8061 49.9834 17.3694L48.9851 17.3106C48.9628 17.6899 48.9068 18.0834 48.8162 18.4915L49.7923 18.7085ZM49.9834 17.3694C50.0084 16.9446 50.0203 16.1625 50.0203 15.036H49.0203C49.0203 16.1655 49.0081 16.9194 48.9851 17.3106L49.9834 17.3694ZM50.0203 15.036C50.0203 13.87 49.9363 12.9396 49.7497 12.2732L48.7868 12.5428C48.9362 13.0764 49.0203 13.898 49.0203 15.036H50.0203ZM49.7511 12.278C49.6512 11.907 49.4838 11.5747 49.215 11.3337C48.9373 11.0847 48.5943 10.972 48.2243 10.972V11.972C48.3822 11.972 48.4772 12.0153 48.5475 12.0783C48.6267 12.1493 48.7173 12.285 48.7854 12.538L49.7511 12.278ZM48.2243 10.972C47.6208 10.972 47.0321 11.1453 46.4642 11.4699L46.9603 12.3381C47.4004 12.0867 47.8197 11.972 48.2243 11.972V10.972ZM46.2123 11.904V19.356H47.2123V11.904H46.2123ZM46.4982 19.8079C47.0056 20.0482 47.5108 20.18 48.0083 20.18V19.18C47.6897 19.18 47.3309 19.0958 46.9263 18.9041L46.4982 19.8079ZM48.0083 20.18C48.4618 20.18 48.9214 20.1113 49.2336 19.8436L48.5829 19.0844C48.5591 19.1047 48.4187 19.18 48.0083 19.18V20.18ZM49.2375 19.8403C49.5544 19.563 49.7163 19.1421 49.7966 18.6869L48.8119 18.5131C48.7482 18.8739 48.6461 19.029 48.579 19.0877L49.2375 19.8403ZM63.4818 12.12L63.9343 12.3329L63.9387 12.3231L63.4818 12.12ZM63.1938 14.028H62.6938V14.528H63.1938V14.028ZM66.3258 14.028V14.528H66.8258V14.028H66.3258ZM70.1418 8.124L69.7663 8.45439L69.7735 8.4622L70.1418 8.124ZM71.5098 17.088V17.588H71.9747L72.0085 17.1244L71.5098 17.088ZM63.3018 17.088V16.588H62.8018V17.088H63.3018ZM70.4298 18.96L70.9266 18.9039L70.8632 18.342L70.3133 18.4738L70.4298 18.96ZM70.9338 23.424L71.0816 23.9016L71.4771 23.7792L71.4306 23.3679L70.9338 23.424ZM59.1978 21.948L58.809 22.2624L58.8113 22.2652L59.1978 21.948ZM64.7058 10.972C64.3396 10.972 63.9948 11.0349 63.6978 11.1921C63.3923 11.3538 63.1652 11.6013 63.0249 11.9169L63.9387 12.3231C63.9904 12.2067 64.0632 12.1302 64.1657 12.0759C64.2768 12.0171 64.4479 11.972 64.7058 11.972V10.972ZM63.0294 11.9071C62.7889 12.4182 62.6938 13.1458 62.6938 14.028H63.6938C63.6938 13.1822 63.7907 12.6378 63.9342 12.3329L63.0294 11.9071ZM63.1938 14.528H66.3258V13.528H63.1938V14.528ZM66.8258 14.028V13.164H65.8258V14.028H66.8258ZM66.8258 13.164C66.8258 12.5282 66.6739 11.9586 66.2819 11.5492C65.886 11.1357 65.3285 10.972 64.7058 10.972V11.972C65.163 11.972 65.4155 12.0903 65.5596 12.2408C65.7076 12.3954 65.8258 12.6718 65.8258 13.164H66.8258ZM64.8498 6.824C67.2563 6.824 68.847 7.40954 69.7664 8.45431L70.5171 7.79369C69.3245 6.43846 67.3873 5.824 64.8498 5.824V6.824ZM69.7735 8.4622C70.741 9.51567 71.2618 11.069 71.2618 13.2H72.2618C72.2618 10.915 71.7026 9.08432 70.51 7.7858L69.7735 8.4622ZM71.2618 13.2C71.2618 13.4643 71.1801 14.7336 71.0111 17.0516L72.0085 17.1244C72.1754 14.8344 72.2618 13.5117 72.2618 13.2H71.2618ZM71.5098 16.588H63.3018V17.588H71.5098V16.588ZM62.8018 17.088C62.8018 18.0552 63.0234 18.8739 63.5548 19.4515C64.0935 20.0371 64.8695 20.288 65.7858 20.288V19.288C65.0461 19.288 64.58 19.0889 64.2907 18.7745C63.9942 18.4521 63.8018 17.9208 63.8018 17.088H62.8018ZM65.7858 20.288C66.6467 20.288 68.2521 19.9959 70.5463 19.4462L70.3133 18.4738C67.9995 19.0281 66.5089 19.288 65.7858 19.288V20.288ZM69.9329 19.0161L70.4369 23.4801L71.4306 23.3679L70.9266 18.9039L69.9329 19.0161ZM70.7859 22.9464C68.8156 23.5562 66.8494 23.86 64.8858 23.86V24.86C66.9542 24.86 69.02 24.5398 71.0816 23.9016L70.7859 22.9464ZM64.8858 23.86C62.5322 23.86 60.7911 23.1009 59.5842 21.6308L58.8113 22.2652C60.2445 24.0111 62.2954 24.86 64.8858 24.86V23.86ZM59.5865 21.6336C58.359 20.1159 57.7178 18.0311 57.7178 15.324H56.7178C56.7178 18.1849 57.3965 20.5161 58.809 22.2624L59.5865 21.6336ZM57.7178 15.324C57.7178 12.3828 58.3431 10.2701 59.5071 8.89738C60.6578 7.54045 62.4064 6.824 64.8498 6.824V5.824C62.2051 5.824 60.1378 6.60755 58.7444 8.25062C57.3645 9.8779 56.7178 12.2652 56.7178 15.324H57.7178Z" fill="white"/>
</svg>
