<svg width="64" height="64" viewBox="0 0 64 64" fill="none" xmlns="http://www.w3.org/2000/svg">
<path d="M32 64C14.3296 64 0 49.6704 0 32C0 14.3296 14.3296 0 32 0C49.6704 0 64 14.3296 64 32C64 49.6704 49.6704 64 32 64Z" fill="#0078B5"/>
<path d="M11.7888 24.7872H20.2944V52.16H11.7888V24.7872ZM16.0448 11.1808C18.7648 11.1808 20.9728 13.3888 20.9728 16.1152C20.9728 18.8416 18.7648 21.0496 16.0448 21.0496C13.3184 21.0496 11.1104 18.8416 11.1104 16.1152C11.104 13.3952 13.312 11.1808 16.0448 11.1808Z" fill="white"/>
<path d="M25.632 24.7872H33.792V28.5248H33.9072C35.04 26.3744 37.8112 24.1024 41.9584 24.1024C50.5728 24.1024 52.1664 29.7728 52.1664 37.1392V52.16H43.6608V38.8544C43.6608 35.6736 43.6032 31.5968 39.2384 31.5968C34.8096 31.5968 34.1312 35.0528 34.1312 38.624V52.1664H25.632V24.7872Z" fill="white"/>
</svg>
