<svg width="64" height="64" viewBox="0 0 64 64" fill="none" xmlns="http://www.w3.org/2000/svg">
<path fill-rule="evenodd" clip-rule="evenodd" d="M64.1 32.1008C64.1 14.4395 49.7616 0.100754 32.1007 0.100754H32.0992C14.4384 0.100754 0.0999985 14.4395 0.0999985 32.1008C0.0999985 49.762 14.4384 64.1008 32.0992 64.1008H32.1007C49.7616 64.1008 64.1 49.762 64.1 32.1008ZM35.313 32.101C35.313 39.9671 28.9797 46.3438 21.1676 46.3438C13.3554 46.3438 7.02163 39.9656 7.02163 32.101C7.02163 24.2362 13.3549 17.8577 21.1676 17.8577C28.9802 17.8577 35.313 24.2349 35.313 32.101ZM50.8312 32.101C50.8312 39.5053 47.6644 45.51 43.7582 45.51C39.8518 45.51 36.6852 39.5053 36.6852 32.101C36.6852 24.6967 39.8513 18.6919 43.7577 18.6919C47.664 18.6919 50.8307 24.6948 50.8307 32.101H50.8312ZM57.1784 32.101C57.1784 38.7334 56.0648 44.1133 54.6908 44.1133C53.3168 44.1133 52.2037 38.7349 52.2037 32.101C52.2037 25.4671 53.3172 20.0887 54.6908 20.0887C56.0644 20.0887 57.1784 25.4666 57.1784 32.101Z" fill="black"/>
</svg>
