<svg width="64" height="65" viewBox="0 0 64 65" fill="none" xmlns="http://www.w3.org/2000/svg">
<circle cx="32" cy="33" r="31" fill="#8DB48E" stroke="#4D724D" stroke-width="2"/>
<path d="M22.175 42.7969C20.8078 42.7969 19.7531 42.6836 19.0109 42.457C18.2687 42.2383 17.7531 41.8867 17.4641 41.4023C17.1828 40.918 17.0422 40.293 17.0422 39.5273V35.8359C17.0422 35.3281 16.925 34.9219 16.6906 34.6172C16.4641 34.3125 16.1281 34.0898 15.6828 33.9492C15.2375 33.8086 14.6906 33.7383 14.0422 33.7383V30.9375C14.6906 30.9375 15.2375 30.8711 15.6828 30.7383C16.1281 30.5977 16.4641 30.375 16.6906 30.0703C16.925 29.7578 17.0422 29.3516 17.0422 28.8516V25.125C17.0422 24.3594 17.1828 23.7383 17.4641 23.2617C17.7531 22.7773 18.2687 22.4258 19.0109 22.207C19.7531 21.9805 20.8078 21.8672 22.175 21.8672V24.5039C21.7609 24.5117 21.3977 24.5625 21.0852 24.6562C20.7805 24.7422 20.5461 24.9023 20.382 25.1367C20.218 25.3711 20.1359 25.7109 20.1359 26.1562V29.6602C20.1359 30.3945 19.9016 30.9805 19.4328 31.418C18.9641 31.8477 18.2844 32.1289 17.3937 32.2617V32.4023C18.2844 32.5273 18.9641 32.8086 19.4328 33.2461C19.9016 33.6758 20.1359 34.2578 20.1359 34.9922V38.4961C20.1359 38.9414 20.218 39.2812 20.382 39.5156C20.5461 39.7578 20.7805 39.9219 21.0852 40.0078C21.3977 40.0938 21.7609 40.1406 22.175 40.1484V42.7969ZM33.7812 24.6445C33.0859 24.6445 32.4688 24.7812 31.9297 25.0547C31.3984 25.3203 30.9492 25.707 30.582 26.2148C30.2227 26.7227 29.9492 27.3359 29.7617 28.0547C29.5742 28.7734 29.4805 29.582 29.4805 30.4805C29.4805 31.6914 29.6289 32.7266 29.9258 33.5859C30.2305 34.4375 30.6992 35.0898 31.332 35.543C31.9648 35.9883 32.7812 36.2109 33.7812 36.2109C34.4766 36.2109 35.1719 36.1328 35.8672 35.9766C36.5703 35.8203 37.332 35.5977 38.1523 35.3086V38.3555C37.3945 38.668 36.6484 38.8906 35.9141 39.0234C35.1797 39.1641 34.3555 39.2344 33.4414 39.2344C31.6758 39.2344 30.2227 38.8711 29.082 38.1445C27.9492 37.4102 27.1094 36.3867 26.5625 35.0742C26.0156 33.7539 25.7422 32.2148 25.7422 30.457C25.7422 29.1602 25.918 27.9727 26.2695 26.8945C26.6211 25.8164 27.1367 24.8828 27.8164 24.0938C28.4961 23.3047 29.3359 22.6953 30.3359 22.2656C31.3359 21.8359 32.4844 21.6211 33.7812 21.6211C34.6328 21.6211 35.4844 21.7305 36.3359 21.9492C37.1953 22.1602 38.0156 22.4531 38.7969 22.8281L37.625 25.7812C36.9844 25.4766 36.3398 25.2109 35.6914 24.9844C35.043 24.7578 34.4062 24.6445 33.7812 24.6445ZM41.8133 42.7969V40.1484C42.2273 40.1406 42.5867 40.0938 42.8914 40.0078C43.1961 39.9219 43.4305 39.7578 43.5945 39.5156C43.7664 39.2812 43.8523 38.9414 43.8523 38.4961V34.9922C43.8523 34.2578 44.0867 33.6758 44.5555 33.2461C45.0242 32.8086 45.7 32.5273 46.5828 32.4023V32.2617C45.7 32.1289 45.0242 31.8477 44.5555 31.418C44.0867 30.9805 43.8523 30.3945 43.8523 29.6602V26.1562C43.8523 25.7109 43.7664 25.3711 43.5945 25.1367C43.4305 24.9023 43.1961 24.7422 42.8914 24.6562C42.5867 24.5625 42.2273 24.5117 41.8133 24.5039V21.8672C43.1805 21.8672 44.2352 21.9805 44.9773 22.207C45.7195 22.4258 46.2312 22.7773 46.5125 23.2617C46.8016 23.7383 46.9461 24.3594 46.9461 25.125V28.8516C46.9461 29.3516 47.0594 29.7578 47.2859 30.0703C47.5203 30.375 47.8602 30.5977 48.3055 30.7383C48.7508 30.8711 49.2977 30.9375 49.9461 30.9375V33.7383C49.2977 33.7383 48.7508 33.8086 48.3055 33.9492C47.8602 34.0898 47.5203 34.3125 47.2859 34.6172C47.0594 34.9219 46.9461 35.3281 46.9461 35.8359V39.5273C46.9461 40.293 46.8016 40.918 46.5125 41.4023C46.2312 41.8867 45.7195 42.2383 44.9773 42.457C44.2352 42.6836 43.1805 42.7969 41.8133 42.7969Z" fill="#F5F5F5"/>
</svg>
