<svg width="64" height="64" viewBox="0 0 64 64" fill="none" xmlns="http://www.w3.org/2000/svg">
<circle cx="32" cy="32" r="31.5" fill="#F5F5F5" stroke="black"/>
<g filter="url(#filter0_dddd_21_3)">
<path d="M42.8438 37.1562L51.8125 40C50.4375 45 48.1458 48.7188 44.9375 51.1562C41.75 53.5729 37.6979 54.7812 32.7812 54.7812C26.6979 54.7812 21.6979 52.7083 17.7812 48.5625C13.8646 44.3958 11.9062 38.7083 11.9062 31.5C11.9062 23.875 13.875 17.9583 17.8125 13.75C21.75 9.52083 26.9271 7.40625 33.3438 7.40625C38.9479 7.40625 43.5 9.0625 47 12.375C49.0833 14.3333 50.6458 17.1458 51.6875 20.8125L42.5312 23C41.9896 20.625 40.8542 18.75 39.125 17.375C37.4167 16 35.3333 15.3125 32.875 15.3125C29.4792 15.3125 26.7188 16.5312 24.5938 18.9688C22.4896 21.4062 21.4375 25.3542 21.4375 30.8125C21.4375 36.6042 22.4792 40.7292 24.5625 43.1875C26.6458 45.6458 29.3542 46.875 32.6875 46.875C35.1458 46.875 37.2604 46.0938 39.0312 44.5312C40.8021 42.9688 42.0729 40.5104 42.8438 37.1562Z" fill="#4D724D"/>
<path d="M42.8438 37.1562L42.9949 36.6796L42.4779 36.5157L42.3565 37.0443L42.8438 37.1562ZM51.8125 40L52.2946 40.1326L52.4221 39.6688L51.9636 39.5234L51.8125 40ZM44.9375 51.1562L45.2396 51.5547L45.24 51.5544L44.9375 51.1562ZM17.7812 48.5625L17.4169 48.905L17.4178 48.9059L17.7812 48.5625ZM17.8125 13.75L18.1776 14.0916L18.1784 14.0907L17.8125 13.75ZM47 12.375L46.6563 12.7381L46.6575 12.7393L47 12.375ZM51.6875 20.8125L51.8037 21.2988L52.311 21.1776L52.1685 20.6759L51.6875 20.8125ZM42.5312 23L42.0438 23.1112L42.1561 23.6037L42.6474 23.4863L42.5312 23ZM39.125 17.375L38.8115 17.7645L38.8138 17.7664L39.125 17.375ZM24.5938 18.9688L24.2169 18.6402L24.2153 18.642L24.5938 18.9688ZM42.6926 37.6329L51.6614 40.4766L51.9636 39.5234L42.9949 36.6796L42.6926 37.6329ZM51.3304 39.8674C49.9761 44.7922 47.7337 48.404 44.635 50.7581L45.24 51.5544C48.558 49.0335 50.8989 45.2078 52.2946 40.1326L51.3304 39.8674ZM44.6354 50.7578C41.5532 53.0947 37.6144 54.2812 32.7812 54.2812V55.2812C37.7814 55.2812 41.9468 54.0512 45.2396 51.5547L44.6354 50.7578ZM32.7812 54.2812C26.8252 54.2812 21.9601 52.2578 18.1447 48.2191L17.4178 48.9059C21.4357 53.1589 26.5706 55.2812 32.7812 55.2812V54.2812ZM18.1456 48.22C14.3372 44.1686 12.4062 38.6157 12.4062 31.5H11.4062C11.4062 38.801 13.392 44.6231 17.4169 48.905L18.1456 48.22ZM12.4062 31.5C12.4062 23.9598 14.3518 18.1806 18.1776 14.0916L17.4474 13.4084C13.3982 17.7361 11.4062 23.7902 11.4062 31.5H12.4062ZM18.1784 14.0907C22.0104 9.97494 27.0489 7.90625 33.3438 7.90625V6.90625C26.8053 6.90625 21.4896 9.06673 17.4466 13.4093L18.1784 14.0907ZM33.3438 7.90625C38.8424 7.90625 43.2642 9.52776 46.6563 12.7381L47.3437 12.0119C43.7358 8.59724 39.0534 6.90625 33.3438 6.90625V7.90625ZM46.6575 12.7393C48.6565 14.6183 50.1816 17.3414 51.2065 20.9491L52.1685 20.6759C51.1101 16.9503 49.5102 14.0483 47.3425 12.0107L46.6575 12.7393ZM51.5713 20.3262L42.4151 22.5137L42.6474 23.4863L51.8037 21.2988L51.5713 20.3262ZM43.0187 22.8888C42.4546 20.4152 41.2635 18.4367 39.4362 16.9836L38.8138 17.7664C40.4449 19.0633 41.5246 20.8348 42.0438 23.1112L43.0187 22.8888ZM39.4385 16.9855C37.6306 15.5303 35.4328 14.8125 32.875 14.8125V15.8125C35.2339 15.8125 37.2028 16.4697 38.8115 17.7645L39.4385 16.9855ZM32.875 14.8125C29.3429 14.8125 26.4421 16.0877 24.2169 18.6402L24.9706 19.2973C26.9954 16.9748 29.6154 15.8125 32.875 15.8125V14.8125ZM24.2153 18.642C21.994 21.2151 20.9375 25.3109 20.9375 30.8125H21.9375C21.9375 25.3975 22.9851 21.5974 24.9722 19.2955L24.2153 18.642ZM20.9375 30.8125C20.9375 36.6382 21.9802 40.9138 24.1811 43.5108L24.9439 42.8642C22.9781 40.5445 21.9375 36.5701 21.9375 30.8125H20.9375ZM24.1811 43.5108C26.3631 46.0856 29.213 47.375 32.6875 47.375V46.375C29.4953 46.375 26.9286 45.2061 24.9439 42.8642L24.1811 43.5108ZM32.6875 47.375C35.2622 47.375 37.4959 46.5528 39.3621 44.9062L38.7004 44.1563C37.025 45.6347 35.0295 46.375 32.6875 46.375V47.375ZM39.3621 44.9062C41.2397 43.2494 42.547 40.6797 43.331 37.2682L42.3565 37.0443C41.5988 40.3411 40.3645 42.6881 38.7004 44.1563L39.3621 44.9062Z" fill="black"/>
</g>
<defs>
<filter id="filter0_dddd_21_3" x="11.9062" y="7.40625" width="41.9062" height="49.375" filterUnits="userSpaceOnUse" color-interpolation-filters="sRGB">
<feFlood flood-opacity="0" result="BackgroundImageFix"/>
<feColorMatrix in="SourceAlpha" type="matrix" values="0 0 0 0 0 0 0 0 0 0 0 0 0 0 0 0 0 0 127 0" result="hardAlpha"/>
<feOffset dx="1.5" dy="1.5"/>
<feComposite in2="hardAlpha" operator="out"/>
<feColorMatrix type="matrix" values="0 0 0 0 0.552941 0 0 0 0 0.705882 0 0 0 0 0.556863 0 0 0 1 0"/>
<feBlend mode="normal" in2="BackgroundImageFix" result="effect1_dropShadow_21_3"/>
<feColorMatrix in="SourceAlpha" type="matrix" values="0 0 0 0 0 0 0 0 0 0 0 0 0 0 0 0 0 0 127 0" result="hardAlpha"/>
<feOffset dx="1" dy="1"/>
<feComposite in2="hardAlpha" operator="out"/>
<feColorMatrix type="matrix" values="0 0 0 0 0.552941 0 0 0 0 0.705882 0 0 0 0 0.556863 0 0 0 1 0"/>
<feBlend mode="normal" in2="effect1_dropShadow_21_3" result="effect2_dropShadow_21_3"/>
<feColorMatrix in="SourceAlpha" type="matrix" values="0 0 0 0 0 0 0 0 0 0 0 0 0 0 0 0 0 0 127 0" result="hardAlpha"/>
<feOffset dx="0.5" dy="0.5"/>
<feComposite in2="hardAlpha" operator="out"/>
<feColorMatrix type="matrix" values="0 0 0 0 0.552941 0 0 0 0 0.705882 0 0 0 0 0.556863 0 0 0 1 0"/>
<feBlend mode="normal" in2="effect2_dropShadow_21_3" result="effect3_dropShadow_21_3"/>
<feColorMatrix in="SourceAlpha" type="matrix" values="0 0 0 0 0 0 0 0 0 0 0 0 0 0 0 0 0 0 127 0" result="hardAlpha"/>
<feOffset dx="2" dy="2"/>
<feComposite in2="hardAlpha" operator="out"/>
<feColorMatrix type="matrix" values="0 0 0 0 0.552941 0 0 0 0 0.705882 0 0 0 0 0.556863 0 0 0 1 0"/>
<feBlend mode="normal" in2="effect3_dropShadow_21_3" result="effect4_dropShadow_21_3"/>
<feBlend mode="normal" in="SourceGraphic" in2="effect4_dropShadow_21_3" result="shape"/>
</filter>
</defs>
</svg>
