<svg width="41" height="48" viewBox="0 0 41 48" fill="none" xmlns="http://www.w3.org/2000/svg">
<path d="M31.8438 30.1562L40.8125 33C39.4375 38 37.1458 41.7188 33.9375 44.1562C30.75 46.5729 26.6979 47.7812 21.7812 47.7812C15.6979 47.7812 10.6979 45.7083 6.78125 41.5625C2.86458 37.3958 0.90625 31.7083 0.90625 24.5C0.90625 16.875 2.875 10.9583 6.8125 6.75C10.75 2.52083 15.9271 0.40625 22.3438 0.40625C27.9479 0.40625 32.5 2.0625 36 5.375C38.0833 7.33333 39.6458 10.1458 40.6875 13.8125L31.5312 16C30.9896 13.625 29.8542 11.75 28.125 10.375C26.4167 9 24.3333 8.3125 21.875 8.3125C18.4792 8.3125 15.7188 9.53125 13.5938 11.9688C11.4896 14.4062 10.4375 18.3542 10.4375 23.8125C10.4375 29.6042 11.4792 33.7292 13.5625 36.1875C15.6458 38.6458 18.3542 39.875 21.6875 39.875C24.1458 39.875 26.2604 39.0938 28.0312 37.5312C29.8021 35.9688 31.0729 33.5104 31.8438 30.1562Z" fill="#4D724D"/>
<path d="M31.8438 30.1562L32.146 29.203L31.1121 28.8752L30.8692 29.9323L31.8438 30.1562ZM40.8125 33L41.7767 33.2652L42.0318 32.3375L41.1147 32.0468L40.8125 33ZM33.9375 44.1562L34.5417 44.9531L34.5425 44.9525L33.9375 44.1562ZM6.78125 41.5625L6.05262 42.2474L6.05434 42.2492L6.78125 41.5625ZM6.8125 6.75L7.54272 7.43322L7.54439 7.43142L6.8125 6.75ZM36 5.375L35.3126 6.1013L35.3151 6.10363L36 5.375ZM40.6875 13.8125L40.9199 14.7851L41.9345 14.5427L41.6494 13.5392L40.6875 13.8125ZM31.5312 16L30.5563 16.2224L30.7809 17.2074L31.7636 16.9726L31.5312 16ZM28.125 10.375L27.498 11.154L27.5026 11.1577L28.125 10.375ZM13.5938 11.9688L12.84 11.3116L12.8368 11.3153L13.5938 11.9688ZM31.5415 31.1095L40.5103 33.9532L41.1147 32.0468L32.146 29.203L31.5415 31.1095ZM39.8483 32.7348C38.5147 37.5844 36.3215 41.0892 33.3325 43.36L34.5425 44.9525C37.9702 42.3483 40.3603 38.4156 41.7767 33.2652L39.8483 32.7348ZM33.3333 43.3594C30.3564 45.6164 26.5309 46.7812 21.7812 46.7812V48.7812C26.865 48.7812 31.1436 47.5294 34.5417 44.9531L33.3333 43.3594ZM21.7812 46.7812C15.9525 46.7812 11.2223 44.8072 7.50816 40.8758L6.05434 42.2492C10.1735 46.6094 15.4433 48.7812 21.7812 48.7812V46.7812ZM7.50988 40.8776C3.80976 36.9413 1.90625 31.523 1.90625 24.5H-0.09375C-0.09375 31.8937 1.91941 37.8504 6.05262 42.2474L7.50988 40.8776ZM1.90625 24.5C1.90625 17.0447 3.82853 11.4029 7.54271 7.43322L6.08229 6.06678C1.92147 10.5138 -0.09375 16.7053 -0.09375 24.5H1.90625ZM7.54439 7.43142C11.2707 3.42904 16.1707 1.40625 22.3438 1.40625V-0.59375C15.6835 -0.59375 10.2293 1.61263 6.08061 6.06858L7.54439 7.43142ZM22.3438 1.40625C27.7369 1.40625 32.0284 2.99302 35.3126 6.10129L36.6874 4.64871C32.9716 1.13198 28.159 -0.59375 22.3438 -0.59375V1.40625ZM35.3151 6.10363C37.2297 7.90333 38.7174 10.5369 39.7256 14.0858L41.6494 13.5392C40.5743 9.75475 38.937 6.76334 36.6849 4.64637L35.3151 6.10363ZM40.4551 12.8399L31.2989 15.0274L31.7636 16.9726L40.9199 14.7851L40.4551 12.8399ZM32.5062 15.7776C31.9196 13.2054 30.6728 11.1233 28.7474 9.59229L27.5026 11.1577C29.0356 12.3767 30.0596 14.0446 30.5563 16.2224L32.5062 15.7776ZM28.752 9.59599C26.8445 8.06066 24.5322 7.3125 21.875 7.3125V9.3125C24.1345 9.3125 25.9889 9.93934 27.498 11.154L28.752 9.59599ZM21.875 7.3125C18.2067 7.3125 15.1655 8.64415 12.84 11.3116L14.3475 12.6259C16.272 10.4184 18.7517 9.3125 21.875 9.3125V7.3125ZM12.8368 11.3153C10.4985 14.024 9.4375 18.2676 9.4375 23.8125H11.4375C11.4375 18.4408 12.4807 14.7885 14.3507 12.6222L12.8368 11.3153ZM9.4375 23.8125C9.4375 29.6723 10.4813 34.0984 12.7996 36.834L14.3254 35.541C12.477 33.3599 11.4375 29.536 11.4375 23.8125H9.4375ZM12.7996 36.834C15.0803 39.5253 18.0719 40.875 21.6875 40.875V38.875C18.6364 38.875 16.2113 37.7664 14.3254 35.541L12.7996 36.834ZM21.6875 40.875C24.3786 40.875 26.7313 40.0119 28.6929 38.2811L27.3696 36.7814C25.7895 38.1756 23.9131 38.875 21.6875 38.875V40.875ZM28.6929 38.2811C30.6773 36.5301 32.0212 33.849 32.8183 30.3802L30.8692 29.9323C30.1247 33.1718 28.9269 35.4074 27.3696 36.7814L28.6929 38.2811Z" fill="black"/>
</svg>
