<svg width="64" height="64" viewBox="0 0 64 64" fill="none" xmlns="http://www.w3.org/2000/svg">
<g filter="url(#filter0_i_9_4)">
<path d="M17.4062 39.9219C17.4062 41.276 17.0677 42.4323 16.3906 43.3906C15.724 44.3385 14.7865 45.0625 13.5781 45.5625C12.3698 46.0625 10.9479 46.3125 9.3125 46.3125C8.44792 46.3125 7.63021 46.2708 6.85938 46.1875C6.08854 46.1042 5.38021 45.9844 4.73438 45.8281C4.08854 45.6719 3.52083 45.4792 3.03125 45.25V42.7031C3.8125 43.026 4.76562 43.3281 5.89062 43.6094C7.01562 43.8802 8.19271 44.0156 9.42188 44.0156C10.5677 44.0156 11.5365 43.8646 12.3281 43.5625C13.1198 43.25 13.7188 42.8073 14.125 42.2344C14.5417 41.651 14.75 40.9531 14.75 40.1406C14.75 39.3594 14.5781 38.7083 14.2344 38.1875C13.8906 37.6562 13.3177 37.1771 12.5156 36.75C11.724 36.3125 10.6406 35.849 9.26562 35.3594C8.29688 35.0156 7.44271 34.6406 6.70312 34.2344C5.96354 33.8177 5.34375 33.349 4.84375 32.8281C4.34375 32.3073 3.96354 31.7031 3.70312 31.0156C3.45312 30.3281 3.32812 29.5417 3.32812 28.6562C3.32812 27.4375 3.63542 26.3958 4.25 25.5312C4.875 24.6562 5.73438 23.9896 6.82812 23.5312C7.93229 23.0625 9.19792 22.8281 10.625 22.8281C11.8438 22.8281 12.9688 22.9427 14 23.1719C15.0417 23.401 15.9948 23.7083 16.8594 24.0938L16.0312 26.375C15.2083 26.0312 14.3333 25.7448 13.4062 25.5156C12.4896 25.2865 11.5417 25.1719 10.5625 25.1719C9.58333 25.1719 8.75521 25.3177 8.07812 25.6094C7.41146 25.8906 6.90104 26.2917 6.54688 26.8125C6.19271 27.3333 6.01562 27.9531 6.01562 28.6719C6.01562 29.474 6.18229 30.1406 6.51562 30.6719C6.85938 31.2031 7.40104 31.6771 8.14062 32.0938C8.89062 32.5 9.88021 32.9271 11.1094 33.375C12.4531 33.8646 13.5938 34.3854 14.5312 34.9375C15.4688 35.4792 16.1823 36.1458 16.6719 36.9375C17.1615 37.7188 17.4062 38.7135 17.4062 39.9219ZM51.7188 23.1562L46.0938 46H38.7969L36.6094 36.0469C36.5677 35.8594 36.5 35.5417 36.4062 35.0938C36.3229 34.6458 36.224 34.1354 36.1094 33.5625C36.0052 32.9896 35.9062 32.4271 35.8125 31.875C35.7292 31.3125 35.6667 30.8385 35.625 30.4531C35.5833 30.8385 35.5156 31.3125 35.4219 31.875C35.3281 32.4271 35.224 32.9896 35.1094 33.5625C35.0052 34.1354 34.901 34.6458 34.7969 35.0938C34.7031 35.5417 34.6354 35.8594 34.5938 36.0469L32.3906 46H25.0938L19.4375 23.1562H25.3906L27.875 34.6094C27.9375 34.8906 28.0208 35.2917 28.125 35.8125C28.2396 36.3229 28.3542 36.8854 28.4688 37.5C28.5938 38.1042 28.7083 38.6875 28.8125 39.25C28.9167 39.8125 28.9896 40.2812 29.0312 40.6562C29.1146 40.0104 29.224 39.276 29.3594 38.4531C29.5052 37.6302 29.6615 36.7969 29.8281 35.9531C30.0052 35.099 30.1719 34.3073 30.3281 33.5781C30.4844 32.849 30.6198 32.2552 30.7344 31.7969L32.75 23.1562H38.4688L40.4219 31.7969C40.526 32.2448 40.6562 32.8385 40.8125 33.5781C40.9792 34.3073 41.1458 35.099 41.3125 35.9531C41.4896 36.8073 41.651 37.651 41.7969 38.4844C41.9427 39.3073 42.0521 40.0312 42.125 40.6562C42.1875 40.1354 42.2917 39.4792 42.4375 38.6875C42.5833 37.8854 42.7292 37.1094 42.875 36.3594C43.0312 35.599 43.151 35.026 43.2344 34.6406L45.7656 23.1562H51.7188Z" fill="#333232"/>
<path d="M53.7148 43.082C53.7148 41.8398 54.0781 40.9668 54.8047 40.4629C55.543 39.959 56.4277 39.707 57.459 39.707C58.4316 39.707 59.2754 39.959 59.9902 40.4629C60.7051 40.9668 61.0625 41.8398 61.0625 43.082C61.0625 44.2656 60.7051 45.1211 59.9902 45.6484C59.2754 46.1758 58.4316 46.4395 57.459 46.4395C56.4277 46.4395 55.543 46.1758 54.8047 45.6484C54.0781 45.1211 53.7148 44.2656 53.7148 43.082Z" fill="#FFA800"/>
</g>
<defs>
<filter id="filter0_i_9_4" x="2.03125" y="22.8281" width="59.0312" height="27.6113" filterUnits="userSpaceOnUse" color-interpolation-filters="sRGB">
<feFlood flood-opacity="0" result="BackgroundImageFix"/>
<feBlend mode="normal" in="SourceGraphic" in2="BackgroundImageFix" result="shape"/>
<feColorMatrix in="SourceAlpha" type="matrix" values="0 0 0 0 0 0 0 0 0 0 0 0 0 0 0 0 0 0 127 0" result="hardAlpha"/>
<feOffset dx="-1" dy="4"/>
<feGaussianBlur stdDeviation="2"/>
<feComposite in2="hardAlpha" operator="arithmetic" k2="-1" k3="1"/>
<feColorMatrix type="matrix" values="0 0 0 0 0 0 0 0 0 0 0 0 0 0 0 0 0 0 0.15 0"/>
<feBlend mode="normal" in2="shape" result="effect1_innerShadow_9_4"/>
</filter>
</defs>
</svg>
